<svg width="550" height="500" viewBox="0 0 550 500" fill="none" xmlns="http://www.w3.org/2000/svg">
<rect width="550" height="500" fill="#ECF8F2"/>
<path d="M112.496 392.199V468.804C112.496 473.311 110.734 477.633 107.598 480.82C104.462 484.007 100.208 485.798 95.7721 485.798C91.3365 485.798 87.0826 484.007 83.9461 480.82C80.8097 477.633 79.0477 473.311 79.0477 468.804V392.199C79.0477 387.692 80.8097 383.37 83.9461 380.183C87.0826 376.996 91.3365 375.206 95.7721 375.206C100.208 375.206 104.462 376.996 107.598 380.183C110.734 383.37 112.496 387.692 112.496 392.199ZM215.284 328.236C210.849 328.236 206.595 330.027 203.458 333.213C200.322 336.4 198.56 340.723 198.56 345.229V468.804C198.56 473.311 200.322 477.633 203.458 480.82C206.595 484.007 210.849 485.798 215.284 485.798C219.72 485.798 223.974 484.007 227.11 480.82C230.247 477.633 232.009 473.311 232.009 468.804V345.229C232.009 340.723 230.247 336.4 227.11 333.213C223.974 330.027 219.72 328.236 215.284 328.236ZM334.763 281.267C330.328 281.267 326.074 283.057 322.937 286.244C319.801 289.431 318.039 293.753 318.039 298.26V468.804C318.039 473.311 319.801 477.633 322.937 480.82C326.074 484.007 330.328 485.798 334.763 485.798C339.199 485.798 343.453 484.007 346.589 480.82C349.726 477.633 351.488 473.311 351.488 468.804V298.26C351.488 296.028 351.055 293.819 350.215 291.757C349.374 289.695 348.142 287.822 346.589 286.244C345.036 284.666 343.193 283.414 341.163 282.56C339.134 281.706 336.96 281.267 334.763 281.267V281.267ZM454.276 234.297C449.84 234.297 445.586 236.088 442.45 239.275C439.313 242.462 437.551 246.784 437.551 251.291V468.804C437.551 473.311 439.313 477.633 442.45 480.82C445.586 484.007 449.84 485.798 454.276 485.798C458.711 485.798 462.965 484.007 466.102 480.82C469.238 477.633 471 473.311 471 468.804V251.291C471 249.059 470.567 246.849 469.727 244.788C468.886 242.726 467.655 240.853 466.102 239.275C464.549 237.697 462.705 236.445 460.676 235.591C458.647 234.737 456.472 234.297 454.276 234.297V234.297ZM95.7721 281.879C99.9721 281.883 104.02 280.281 107.111 277.392L220.101 171.66L330.984 197.762C334.033 198.469 337.218 198.293 340.174 197.254C343.13 196.215 345.74 194.354 347.708 191.882L467.22 41.4241C469.911 37.9085 471.135 33.4604 470.63 29.0367C470.126 24.6131 467.932 20.5675 464.522 17.7704C461.112 14.9732 456.757 13.6482 452.395 14.0802C448.033 14.5123 444.012 16.6669 441.197 20.0806L328.341 162.348L219.064 136.62C216.407 136.011 213.645 136.064 211.012 136.774C208.38 137.484 205.955 138.831 203.945 140.699L84.366 252.514C81.8988 254.834 80.1767 257.855 79.4243 261.184C78.6719 264.513 78.9243 267.995 80.1483 271.176C81.3724 274.356 83.5114 277.089 86.2865 279.016C89.0615 280.944 92.3438 281.977 95.7052 281.981L95.7721 281.879Z" fill="#48BF84"/>
</svg>
