<svg width="500" height="500" viewBox="0 0 500 500" fill="none" xmlns="http://www.w3.org/2000/svg">
<rect width="500" height="500" fill="#ECF8F2"/>
<path d="M98.4313 381.22H116.266C120.37 381.22 123.697 377.893 123.697 373.788C123.697 369.684 120.37 366.357 116.266 366.357H111.807V361.401C111.807 357.297 108.48 353.97 104.376 353.97C100.272 353.97 96.9451 357.297 96.9451 361.401V366.513C86.5439 367.553 78.7453 376.503 79.1385 386.949C79.5318 397.395 87.9814 405.733 98.4313 405.988H104.376C106.916 406.248 108.847 408.387 108.847 410.94C108.847 413.493 106.916 415.633 104.376 415.893H86.5415C82.4374 415.893 79.1104 419.22 79.1104 423.324C79.1104 427.429 82.4374 430.756 86.5415 430.756H96.9451V435.712C96.9451 439.816 100.272 443.143 104.376 443.143C108.48 443.143 111.807 439.816 111.807 435.712V429.225C119.06 426.046 123.732 418.863 123.697 410.944C123.821 400.141 115.179 391.276 104.376 391.125H98.4313C95.8917 390.865 93.9607 388.725 93.9607 386.172C93.9607 383.619 95.8917 381.48 98.4313 381.22Z" fill="#48BF84"/>
<path d="M272.32 376.263H257.458V346.539C257.458 342.434 254.131 339.107 250.027 339.107C245.922 339.107 242.595 342.434 242.595 346.539V383.694C242.595 387.798 245.922 391.125 250.027 391.125H272.32C276.424 391.125 279.751 387.798 279.751 383.694C279.751 379.59 276.424 376.263 272.32 376.263Z" fill="#48BF84"/>
<path d="M406.082 324.624V264.796C406.082 256.588 399.428 249.934 391.22 249.934H353.723C352.213 235.441 343.502 222.685 330.552 216.003L288.611 194.49C285.635 192.901 283.783 189.794 283.803 186.42V176.678C284.643 175.593 285.534 174.374 286.463 173.037C291.921 165.079 296.278 156.42 299.416 147.295C305.839 143.479 309.69 136.483 309.478 129.015V110.972C309.621 106.444 308.319 101.989 305.762 98.2497V75.3024C306.645 63.7708 302.962 52.3539 295.507 43.512C285.854 32.5659 270.553 27 250.029 27C229.504 27 214.196 32.5659 204.543 43.5417C197.092 52.3741 193.412 63.781 194.295 75.3024V98.272C191.742 102.005 190.441 106.452 190.579 110.972V128.992C190.417 134.792 192.657 140.401 196.77 144.494C199.837 155.987 204.949 166.834 211.862 176.514V186.026C211.896 189.297 210.16 192.33 207.322 193.955L168.145 215.87C155.694 222.935 147.514 235.672 146.268 249.934H108.837C100.629 249.934 93.9747 256.588 93.9747 264.796V324.624C57.4702 328.247 29.0706 357.965 27.1077 394.596C25.1448 431.228 50.2061 463.811 86.1145 471.313C122.023 478.816 158.034 458.993 170.902 424.64C186.167 454.274 216.709 472.897 250.043 472.897C283.378 472.897 313.92 454.274 329.185 424.64C335.83 442.226 348.869 456.656 365.694 465.043C365.896 465.156 366.105 465.258 366.318 465.348C386.728 475.374 410.633 475.374 431.044 465.348C431.257 465.258 431.466 465.156 431.668 465.043C461.36 450.359 477.73 417.78 471.793 385.192C465.855 352.604 439.045 327.892 406.082 324.624ZM391.22 324.624C368.36 326.959 347.866 339.738 335.709 359.239C325.499 323.636 294.364 298.037 257.46 294.9V279.659H342.241C348.799 279.622 354.089 274.282 354.064 267.724V264.796H391.22V324.624ZM160.855 254.029C160.786 243.608 166.35 233.963 175.405 228.807L214.582 206.893C222.1 202.64 226.741 194.664 226.725 186.026V174.047C226.72 172.343 226.132 170.691 225.06 169.366C218.209 160.246 213.303 149.819 210.644 138.727C210.223 136.854 209.094 135.216 207.493 134.157C206.012 132.879 205.247 130.96 205.442 129.015V110.972C205.262 109.34 205.744 107.705 206.779 106.431C208.295 105.026 209.157 103.052 209.157 100.984V74.9754C209.157 74.693 209.157 74.3586 209.105 74.0762C208.568 66.5375 210.964 59.0827 215.793 53.2691C222.533 45.6893 234.052 41.8623 250.029 41.8623C266.005 41.8623 277.524 45.6893 284.212 53.217C289.049 59.0281 291.458 66.4813 290.937 74.0242C290.899 74.3398 290.879 74.6574 290.877 74.9754V101.007C290.878 103.074 291.74 105.048 293.255 106.454C294.293 107.718 294.783 109.345 294.615 110.972V128.992C294.84 131.47 293.433 133.807 291.138 134.766C288.828 135.497 287.02 137.308 286.292 139.619C283.546 148.494 279.48 156.906 274.232 164.573C273.143 166.171 271.975 167.714 270.732 169.195C269.578 170.54 268.943 172.253 268.941 174.025V186.398C268.883 195.355 273.864 203.585 281.826 207.688L323.768 229.201C333.353 234.175 339.322 244.122 339.202 254.92L339.204 264.796H160.854L160.855 254.029ZM145.993 264.796V267.724C145.968 274.282 151.258 279.622 157.816 279.659H242.597V294.9C205.693 298.037 174.558 323.636 164.348 359.239C152.191 339.738 131.697 326.959 108.837 324.624V264.796H145.993ZM101.406 458.006C68.5731 458.006 41.9568 431.389 41.9568 398.557C41.9568 365.724 68.5731 339.108 101.406 339.108C134.239 339.108 160.855 365.724 160.855 398.557C160.818 431.374 134.223 457.969 101.406 458.006ZM250.029 458.006C208.988 458.006 175.717 424.735 175.717 383.694C175.717 342.653 208.988 309.383 250.029 309.383C291.07 309.383 324.34 342.653 324.34 383.694C324.295 424.717 291.051 457.961 250.029 458.006ZM435.807 444.89V405.988C435.807 401.884 432.48 398.557 428.376 398.557C424.272 398.557 420.945 401.884 420.945 405.988V453.629C416.179 455.557 411.183 456.856 406.082 457.493V405.988C406.082 401.884 402.755 398.557 398.651 398.557C394.547 398.557 391.22 401.884 391.22 405.988V457.493C386.119 456.856 381.123 455.557 376.358 453.629V428.281C376.358 424.177 373.031 420.85 368.927 420.85C364.823 420.85 361.496 424.177 361.496 428.281V444.89C341.79 429.113 334.197 402.612 342.557 378.793C350.918 354.975 373.408 339.033 398.651 339.033C423.894 339.033 446.385 354.975 454.745 378.793C463.105 402.612 455.512 429.113 435.807 444.89Z" fill="#48BF84"/>
<path d="M423.121 363.578L413.512 373.187L403.904 363.578C401.002 360.677 396.298 360.677 393.396 363.578L363.672 393.303C361.74 395.169 360.965 397.932 361.645 400.53C362.325 403.128 364.354 405.157 366.952 405.837C369.551 406.517 372.314 405.742 374.179 403.811L398.65 379.34L408.258 388.948C411.16 391.849 415.864 391.849 418.766 388.948L433.628 374.086C436.444 371.17 436.404 366.535 433.538 363.669C430.671 360.803 426.036 360.762 423.121 363.578Z" fill="#48BF84"/>
</svg>
