<svg width="500" height="500" viewBox="0 0 500 500" fill="none" xmlns="http://www.w3.org/2000/svg">
<rect width="500" height="500" fill="#ECF8F2"/>
<path d="M117.374 149.206C123.208 143.357 132.665 143.357 138.499 149.206L180.749 191.568C186.582 197.416 186.582 206.9 180.749 212.749L138.499 255.112C132.665 260.961 123.208 260.961 117.374 255.112C111.541 249.262 111.541 239.78 117.374 233.93L149.061 202.158L117.374 170.387C111.541 164.538 111.541 155.055 117.374 149.206Z" fill="#48BF84"/>
<path d="M175.312 279.615C167.062 279.615 160.375 286.32 160.375 294.592C160.375 302.864 167.062 309.569 175.312 309.569H264.937C273.187 309.569 279.875 302.864 279.875 294.592C279.875 286.32 273.187 279.615 264.937 279.615H175.312Z" fill="#48BF84"/>
<path fill-rule="evenodd" clip-rule="evenodd" d="M414.312 25C455.561 25 489 58.528 489 99.8867V399.433C489 440.792 455.561 474.32 414.312 474.32H85.6875C44.4388 474.32 11 440.792 11 399.433V99.8867C11 58.5278 44.4388 25 85.6875 25H414.312ZM459.125 99.8867C459.125 75.0715 439.062 54.9547 414.312 54.9547H85.6875C60.9383 54.9547 40.875 75.0713 40.875 99.8867V399.433C40.875 424.249 60.9383 444.365 85.6875 444.365H414.312C439.062 444.365 459.125 424.249 459.125 399.433V99.8867Z" fill="#48BF84"/>
</svg>
